<?xml version="1.0" encoding="UTF-8" standalone="no"?>
<!DOCTYPE svg PUBLIC "-//W3C//DTD SVG 1.1//EN"
 "http://www.w3.org/Graphics/SVG/1.1/DTD/svg11.dtd">
<!-- Generated by graphviz version 2.42.3 (0)
 -->
<!-- Title: Current Pages: 1 -->
<svg width="264pt" height="387pt"
 viewBox="0.00 0.00 264.00 387.00" xmlns="http://www.w3.org/2000/svg" xmlns:xlink="http://www.w3.org/1999/xlink">
<g id="graph0" class="graph" transform="scale(1 1) rotate(0) translate(4 383)">
<title>Current</title>
<polygon fill="white" stroke="transparent" points="-4,4 -4,-383 260,-383 260,4 -4,4"/>
<g id="clust1" class="cluster">
<title>cluster0</title>
<polygon fill="none" stroke="black" points="8,-8 8,-371 248,-371 248,-8 8,-8"/>
<text text-anchor="middle" x="128" y="-355.8" font-family="Times,serif" font-size="14.00">Current Flow</text>
</g>
<!-- main -->
<g id="node1" class="node">
<title>main</title>
<polygon fill="lightgrey" stroke="black" points="189,-340 135,-340 135,-304 189,-304 189,-340"/>
<text text-anchor="middle" x="162" y="-318.3" font-family="Times,serif" font-size="14.00">main</text>
</g>
<!-- walk_and_embed_assets -->
<g id="node2" class="node">
<title>walk_and_embed_assets</title>
<polygon fill="lightgrey" stroke="black" points="197.5,-268 26.5,-268 26.5,-232 197.5,-232 197.5,-268"/>
<text text-anchor="middle" x="112" y="-246.3" font-family="Times,serif" font-size="14.00">walk_and_embed_assets</text>
</g>
<!-- main&#45;&gt;walk_and_embed_assets -->
<g id="edge1" class="edge">
<title>main&#45;&gt;walk_and_embed_assets</title>
<path fill="none" stroke="black" d="M149.64,-303.7C143.77,-295.47 136.63,-285.48 130.16,-276.42"/>
<polygon fill="black" stroke="black" points="132.88,-274.21 124.22,-268.1 127.18,-278.28 132.88,-274.21"/>
</g>
<!-- retrieve_assets -->
<g id="node3" class="node">
<title>retrieve_assets</title>
<polygon fill="lightgrey" stroke="black" points="239.5,-124 128.5,-124 128.5,-88 239.5,-88 239.5,-124"/>
<text text-anchor="middle" x="184" y="-102.3" font-family="Times,serif" font-size="14.00">retrieve_assets</text>
</g>
<!-- main&#45;&gt;retrieve_assets -->
<g id="edge2" class="edge">
<title>main&#45;&gt;retrieve_assets</title>
<path fill="none" stroke="black" d="M189.01,-306.07C202.51,-297 217.52,-284.07 225,-268 233.89,-248.9 219.94,-171.37 216,-160 212.74,-150.6 207.66,-141.08 202.49,-132.74"/>
<polygon fill="black" stroke="black" points="205.34,-130.69 196.94,-124.22 199.47,-134.51 205.34,-130.69"/>
</g>
<!-- walk_and_embed_assets&#45;&gt;walk_and_embed_assets -->
<g id="edge3" class="edge">
<title>walk_and_embed_assets&#45;&gt;walk_and_embed_assets</title>
<path fill="none" stroke="black" d="M197.66,-261.76C208.42,-259.68 215.5,-255.77 215.5,-250 215.5,-246.22 212.45,-243.23 207.31,-241.03"/>
<polygon fill="black" stroke="black" points="208.24,-237.66 197.66,-238.24 206.3,-244.38 208.24,-237.66"/>
</g>
<!-- walk_and_embed_assets&#45;&gt;retrieve_assets -->
<g id="edge5" class="edge">
<title>walk_and_embed_assets&#45;&gt;retrieve_assets</title>
<path fill="none" stroke="black" d="M166.02,-231.96C182.77,-223.85 199.36,-212.26 209,-196 220.56,-176.52 211.77,-151.46 201.56,-132.9"/>
<polygon fill="black" stroke="black" points="204.46,-130.93 196.35,-124.11 198.44,-134.5 204.46,-130.93"/>
</g>
<!-- resolve_css_imports -->
<g id="node4" class="node">
<title>resolve_css_imports</title>
<polygon fill="lightgrey" stroke="black" points="182,-196 36,-196 36,-160 182,-160 182,-196"/>
<text text-anchor="middle" x="109" y="-174.3" font-family="Times,serif" font-size="14.00">resolve_css_imports</text>
</g>
<!-- walk_and_embed_assets&#45;&gt;resolve_css_imports -->
<g id="edge4" class="edge">
<title>walk_and_embed_assets&#45;&gt;resolve_css_imports</title>
<path fill="none" stroke="black" d="M111.26,-231.7C110.93,-223.98 110.53,-214.71 110.16,-206.11"/>
<polygon fill="black" stroke="black" points="113.66,-205.95 109.73,-196.1 106.66,-206.25 113.66,-205.95"/>
</g>
<!-- to_dataurl -->
<g id="node5" class="node">
<title>to_dataurl</title>
<polygon fill="none" stroke="black" points="148.5,-52 69.5,-52 69.5,-16 148.5,-16 148.5,-52"/>
<text text-anchor="middle" x="109" y="-30.3" font-family="Times,serif" font-size="14.00">to_dataurl</text>
</g>
<!-- walk_and_embed_assets&#45;&gt;to_dataurl -->
<g id="edge6" class="edge">
<title>walk_and_embed_assets&#45;&gt;to_dataurl</title>
<path fill="none" stroke="black" d="M66.97,-231.86C51.45,-223.53 35.78,-211.81 27,-196 0.51,-148.26 47.94,-91.02 81.03,-59.26"/>
<polygon fill="black" stroke="black" points="83.74,-61.51 88.66,-52.13 78.96,-56.4 83.74,-61.51"/>
</g>
<!-- retrieve_assets&#45;&gt;to_dataurl -->
<g id="edge10" class="edge">
<title>retrieve_assets&#45;&gt;to_dataurl</title>
<path fill="none" stroke="black" d="M165.46,-87.7C156.2,-79.05 144.84,-68.45 134.74,-59.03"/>
<polygon fill="black" stroke="black" points="137.02,-56.37 127.33,-52.1 132.25,-61.49 137.02,-56.37"/>
</g>
<!-- resolve_css_imports&#45;&gt;retrieve_assets -->
<g id="edge8" class="edge">
<title>resolve_css_imports&#45;&gt;retrieve_assets</title>
<path fill="none" stroke="black" d="M127.54,-159.7C136.8,-151.05 148.16,-140.45 158.26,-131.03"/>
<polygon fill="black" stroke="black" points="160.75,-133.49 165.67,-124.1 155.98,-128.37 160.75,-133.49"/>
</g>
<!-- resolve_css_imports&#45;&gt;resolve_css_imports -->
<g id="edge9" class="edge">
<title>resolve_css_imports&#45;&gt;resolve_css_imports</title>
<path fill="none" stroke="black" d="M182.19,-190.18C192.83,-188.25 200,-184.19 200,-178 200,-174.04 197.06,-170.95 192.15,-168.73"/>
<polygon fill="black" stroke="black" points="192.77,-165.26 182.19,-165.82 190.81,-171.98 192.77,-165.26"/>
</g>
<!-- resolve_css_imports&#45;&gt;to_dataurl -->
<g id="edge7" class="edge">
<title>resolve_css_imports&#45;&gt;to_dataurl</title>
<path fill="none" stroke="black" d="M109,-159.87C109,-135.67 109,-91.21 109,-62.39"/>
<polygon fill="black" stroke="black" points="112.5,-62.19 109,-52.19 105.5,-62.19 112.5,-62.19"/>
</g>
</g>
</svg>
