<?xml version="1.0" encoding="UTF-8" standalone="no"?>
<!DOCTYPE svg PUBLIC "-//W3C//DTD SVG 1.1//EN"
 "http://www.w3.org/Graphics/SVG/1.1/DTD/svg11.dtd">
<!-- Generated by graphviz version 2.42.3 (0)
 -->
<!-- Title: Current Pages: 1 -->
<svg width="584pt" height="387pt"
 viewBox="0.00 0.00 584.00 387.00" xmlns="http://www.w3.org/2000/svg" xmlns:xlink="http://www.w3.org/1999/xlink">
<g id="graph0" class="graph" transform="scale(1 1) rotate(0) translate(4 383)">
<title>Current</title>
<polygon fill="white" stroke="transparent" points="-4,4 -4,-383 580,-383 580,4 -4,4"/>
<g id="clust1" class="cluster">
<title>cluster0</title>
<polygon fill="none" stroke="black" points="8,-8 8,-371 568,-371 568,-8 8,-8"/>
<text text-anchor="middle" x="288" y="-355.8" font-family="Times,serif" font-size="14.00">Proposed Flow</text>
</g>
<!-- download_complete_page -->
<g id="node1" class="node">
<title>download_complete_page</title>
<polygon fill="lightgrey" stroke="black" points="276.5,-340 97.5,-340 97.5,-304 276.5,-304 276.5,-340"/>
<text text-anchor="middle" x="187" y="-318.3" font-family="Times,serif" font-size="14.00">download_complete_page</text>
</g>
<!-- Asset::new -->
<g id="node2" class="node">
<title>Asset::new</title>
<polygon fill="none" stroke="black" points="197,-52 111,-52 111,-16 197,-16 197,-52"/>
<text text-anchor="middle" x="154" y="-30.3" font-family="Times,serif" font-size="14.00">Asset::new</text>
</g>
<!-- download_complete_page&#45;&gt;Asset::new -->
<g id="edge1" class="edge">
<title>download_complete_page&#45;&gt;Asset::new</title>
<path fill="none" stroke="black" d="M144.29,-303.89C103.57,-284.72 45.76,-249.19 27,-196 10.47,-149.13 22.89,-125.07 56,-88 68.28,-74.25 85,-63.39 101.15,-55.18"/>
<polygon fill="black" stroke="black" points="103.06,-58.14 110.55,-50.65 100.02,-51.84 103.06,-58.14"/>
</g>
<!-- Asset::download_complete -->
<g id="node3" class="node">
<title>Asset::download_complete</title>
<polygon fill="lightgrey" stroke="black" points="280.5,-268 93.5,-268 93.5,-232 280.5,-232 280.5,-268"/>
<text text-anchor="middle" x="187" y="-246.3" font-family="Times,serif" font-size="14.00">Asset::download_complete</text>
</g>
<!-- download_complete_page&#45;&gt;Asset::download_complete -->
<g id="edge2" class="edge">
<title>download_complete_page&#45;&gt;Asset::download_complete</title>
<path fill="none" stroke="black" d="M187,-303.7C187,-295.98 187,-286.71 187,-278.11"/>
<polygon fill="black" stroke="black" points="190.5,-278.1 187,-268.1 183.5,-278.1 190.5,-278.1"/>
</g>
<!-- Asset::try_stringify -->
<g id="node9" class="node">
<title>Asset::try_stringify</title>
<polygon fill="none" stroke="black" points="508,-268 376,-268 376,-232 508,-232 508,-268"/>
<text text-anchor="middle" x="442" y="-246.3" font-family="Times,serif" font-size="14.00">Asset::try_stringify</text>
</g>
<!-- download_complete_page&#45;&gt;Asset::try_stringify -->
<g id="edge8" class="edge">
<title>download_complete_page&#45;&gt;Asset::try_stringify</title>
<path fill="none" stroke="black" d="M249.05,-303.97C285.46,-293.97 331.63,-281.3 369.68,-270.85"/>
<polygon fill="black" stroke="black" points="370.95,-274.13 379.67,-268.11 369.1,-267.38 370.95,-274.13"/>
</g>
<!-- Asset::auto_select_resource_type -->
<g id="node4" class="node">
<title>Asset::auto_select_resource_type</title>
<polygon fill="none" stroke="black" points="261.5,-196 36.5,-196 36.5,-160 261.5,-160 261.5,-196"/>
<text text-anchor="middle" x="149" y="-174.3" font-family="Times,serif" font-size="14.00">Asset::auto_select_resource_type</text>
</g>
<!-- Asset::download_complete&#45;&gt;Asset::auto_select_resource_type -->
<g id="edge3" class="edge">
<title>Asset::download_complete&#45;&gt;Asset::auto_select_resource_type</title>
<path fill="none" stroke="black" d="M177.61,-231.7C173.24,-223.64 167.94,-213.89 163.1,-204.98"/>
<polygon fill="black" stroke="black" points="166.13,-203.22 158.29,-196.1 159.98,-206.56 166.13,-203.22"/>
</g>
<!-- Asset::download -->
<g id="node5" class="node">
<title>Asset::download</title>
<polygon fill="lightgrey" stroke="black" points="402,-196 280,-196 280,-160 402,-160 402,-196"/>
<text text-anchor="middle" x="341" y="-174.3" font-family="Times,serif" font-size="14.00">Asset::download</text>
</g>
<!-- Asset::download_complete&#45;&gt;Asset::download -->
<g id="edge4" class="edge">
<title>Asset::download_complete&#45;&gt;Asset::download</title>
<path fill="none" stroke="black" d="M224.67,-231.88C245.63,-222.35 271.9,-210.41 294.18,-200.28"/>
<polygon fill="black" stroke="black" points="295.79,-203.39 303.45,-196.07 292.9,-197.02 295.79,-203.39"/>
</g>
<!-- Resource::new -->
<g id="node6" class="node">
<title>Resource::new</title>
<polygon fill="none" stroke="black" points="173,-124 65,-124 65,-88 173,-88 173,-124"/>
<text text-anchor="middle" x="119" y="-102.3" font-family="Times,serif" font-size="14.00">Resource::new</text>
</g>
<!-- Asset::auto_select_resource_type&#45;&gt;Resource::new -->
<g id="edge5" class="edge">
<title>Asset::auto_select_resource_type&#45;&gt;Resource::new</title>
<path fill="none" stroke="black" d="M141.58,-159.7C138.21,-151.81 134.13,-142.3 130.38,-133.55"/>
<polygon fill="black" stroke="black" points="133.49,-131.92 126.33,-124.1 127.05,-134.67 133.49,-131.92"/>
</g>
<!-- Resource::parse -->
<g id="node7" class="node">
<title>Resource::parse</title>
<polygon fill="none" stroke="black" points="308.5,-124 191.5,-124 191.5,-88 308.5,-88 308.5,-124"/>
<text text-anchor="middle" x="250" y="-102.3" font-family="Times,serif" font-size="14.00">Resource::parse</text>
</g>
<!-- Asset::download&#45;&gt;Resource::parse -->
<g id="edge6" class="edge">
<title>Asset::download&#45;&gt;Resource::parse</title>
<path fill="none" stroke="black" d="M318.51,-159.7C307.04,-150.88 292.94,-140.03 280.52,-130.47"/>
<polygon fill="black" stroke="black" points="282.3,-127.43 272.24,-124.1 278.03,-132.98 282.3,-127.43"/>
</g>
<!-- Resource::needed_assets -->
<g id="node8" class="node">
<title>Resource::needed_assets</title>
<polygon fill="none" stroke="black" points="503.5,-124 326.5,-124 326.5,-88 503.5,-88 503.5,-124"/>
<text text-anchor="middle" x="415" y="-102.3" font-family="Times,serif" font-size="14.00">Resource::needed_assets</text>
</g>
<!-- Asset::download&#45;&gt;Resource::needed_assets -->
<g id="edge7" class="edge">
<title>Asset::download&#45;&gt;Resource::needed_assets</title>
<path fill="none" stroke="black" d="M359.29,-159.7C368.43,-151.05 379.64,-140.45 389.6,-131.03"/>
<polygon fill="black" stroke="black" points="392.06,-133.52 396.92,-124.1 387.25,-128.43 392.06,-133.52"/>
</g>
<!-- Resource::parse&#45;&gt;Asset::new -->
<g id="edge11" class="edge">
<title>Resource::parse&#45;&gt;Asset::new</title>
<path fill="none" stroke="black" d="M226.27,-87.7C214.06,-78.8 199.01,-67.82 185.82,-58.2"/>
<polygon fill="black" stroke="black" points="187.6,-55.17 177.46,-52.1 183.48,-60.82 187.6,-55.17"/>
</g>
<!-- Resource::render -->
<g id="node10" class="node">
<title>Resource::render</title>
<polygon fill="none" stroke="black" points="542,-196 420,-196 420,-160 542,-160 542,-196"/>
<text text-anchor="middle" x="481" y="-174.3" font-family="Times,serif" font-size="14.00">Resource::render</text>
</g>
<!-- Asset::try_stringify&#45;&gt;Resource::render -->
<g id="edge9" class="edge">
<title>Asset::try_stringify&#45;&gt;Resource::render</title>
<path fill="none" stroke="black" d="M451.64,-231.7C456.13,-223.64 461.56,-213.89 466.52,-204.98"/>
<polygon fill="black" stroke="black" points="469.66,-206.54 471.47,-196.1 463.55,-203.14 469.66,-206.54"/>
</g>
<!-- Resource::render&#45;&gt;Resource::render -->
<g id="edge10" class="edge">
<title>Resource::render&#45;&gt;Resource::render</title>
<path fill="none" stroke="black" d="M542.28,-190.6C552.75,-188.88 560,-184.68 560,-178 560,-173.72 557.02,-170.46 552.13,-168.21"/>
<polygon fill="black" stroke="black" points="552.86,-164.78 542.28,-165.4 550.93,-171.51 552.86,-164.78"/>
</g>
</g>
</svg>
